<?xml version="1.0" encoding="iso-8859-1"?>
<!-- Generator: Adobe Illustrator 19.0.0, SVG Export Plug-In . SVG Version: 6.00 Build 0)  -->
<svg version="1.1" id="Capa_1" xmlns="http://www.w3.org/2000/svg" xmlns:xlink="http://www.w3.org/1999/xlink" x="0px" y="0px"
	 viewBox="0 0 480 480" style="enable-background:new 0 0 480 480;" xml:space="preserve">
<g>
	<path style="fill:#88D0EF;" d="M56,152v-48l112,32L56,152z"/>
	<path style="fill:#88D0EF;" d="M110.28,280C76.585,259.752,55.981,223.311,56,184h136L110.28,280z"/>
	<path style="fill:#88D0EF;" d="M160,296h56c61.856,0,112-50.144,112-112V8H152c0,0,72,136,72,144v48L160,296z"/>
	<path style="fill:#88D0EF;" d="M56,72V8h64l24,88L56,72z"/>
	<path style="fill:#88D0EF;" d="M176,280h32v160h-32V280z"/>
	<path style="fill:#88D0EF;" d="M112,432h160c22.091,0,40,17.909,40,40l0,0H72l0,0C72,449.909,89.909,432,112,432z"/>
</g>
<path style="fill:#4091DB;" d="M371.632,290.12L368,288l-3.632,2.12c-16.387,9.519-35.672,12.765-54.272,9.136v80.56
	c0.003,9.94,2.773,19.682,8,28.136c6.157,9.924,15.277,17.663,26.072,22.12L368,440l23.816-9.928
	c10.795-4.457,19.915-12.195,26.072-22.12c5.227-8.454,7.997-18.196,8-28.136v-80.56
	C407.294,302.881,388.015,299.635,371.632,290.12z"/>
<path style="fill:#2273AF;" d="M368,440l23.816-9.928c10.795-4.457,19.915-12.195,26.072-22.12c5.227-8.454,7.997-18.196,8-28.136
	v-80.56c-18.6,3.629-37.885,0.383-54.272-9.136L368,288V440z"/>
<path d="M422.456,291.416c-16.063,3.245-32.758,0.335-46.776-8.152l-3.512-2.112c-0.208-0.128-0.448-0.184-0.656-0.288
	s-0.48-0.216-0.736-0.312c-1.768-0.656-3.712-0.656-5.48,0c-0.248,0.096-0.48,0.2-0.728,0.312s-0.448,0.16-0.656,0.288l-3.52,2.112
	c-14.02,8.499-30.724,11.409-46.792,8.152c-4.329-0.884-8.555,1.909-9.438,6.238c-0.108,0.527-0.162,1.064-0.162,1.602v80.568
	c0.002,11.348,3.07,22.484,8.88,32.232c6.718,11.302,16.845,20.184,28.928,25.368l23.024,9.92c2.01,0.874,4.294,0.874,6.304,0
	l23.032-9.92c12.083-5.184,22.21-14.066,28.928-25.368c5.818-9.745,8.895-20.882,8.904-32.232v-80.568
	c0.001-4.418-3.58-8.001-7.998-8.002c-0.538,0-1.075,0.054-1.602,0.162H422.456z M326.648,403.848
	c-4.326-7.258-6.612-15.55-6.616-24v-71.4c13.713,1.09,27.477-1.324,40-7.016v126.4l-11.864-5.112
	C339.182,418.86,331.649,412.254,326.648,403.848z M416.033,379.848c-0.004,8.45-2.29,16.742-6.616,24
	c-4.998,8.411-12.531,15.024-21.52,18.888l-11.896,5.112v-126.4c12.523,5.692,26.288,8.106,40,7.016L416.033,379.848z"/>
<path d="M48,152c0,4.418,3.582,8,8,8c0.38,0.001,0.76-0.026,1.136-0.08l112-16c4.374-0.623,7.415-4.674,6.792-9.048
	c-0.446-3.13-2.694-5.704-5.736-6.568l-112-32c-4.249-1.211-8.675,1.253-9.886,5.502C48.103,102.519,48,103.258,48,104V152z
	 M64,114.608l65.728,18.776L64,142.776V114.608z"/>
<path d="M106.192,286.848c1.239,0.754,2.662,1.153,4.112,1.152c2.349,0.003,4.582-1.027,6.104-2.816l81.72-96
	c2.863-3.365,2.456-8.414-0.909-11.277c-1.456-1.239-3.307-1.915-5.219-1.907H56c-4.418,0-8,3.582-8,8
	C47.832,226.164,69.963,265.278,106.192,286.848L106.192,286.848z M174.72,192l-65.92,77.48
	C82.974,251.752,66.609,223.242,64.328,192H174.72z"/>
<path d="M336,184V8c0-4.418-3.582-8-8-8H152c-4.418-0.001-8.001,3.58-8.002,7.998c0,1.306,0.319,2.592,0.93,3.746
	c26.056,49.152,67.952,130.12,71.072,140.96V197.6l-62.624,93.96c-2.452,3.675-1.461,8.643,2.215,11.095
	c1.306,0.871,2.839,1.339,4.409,1.345h8v120h-56c-26.499,0.026-47.974,21.501-48,48c0,4.418,3.582,8,8,8h240c4.418,0,8-3.582,8-8
	c-0.026-26.499-21.501-47.974-48-48h-56V304C282.244,303.925,335.926,250.243,336,184z M230.688,204.44
	c0.863-1.32,1.319-2.863,1.312-4.44v-48c0-6.336-22.4-52.08-66.728-136H320v168c-0.066,57.41-46.59,103.934-104,104h-41.024
	L230.688,204.44z M303.016,464H81.048c3.657-14.109,16.377-23.971,30.952-24h160C286.6,439.999,299.353,449.868,303.016,464z
	 M200,424h-16V304h16V424z"/>
<path d="M141.928,103.72c0.676,0.181,1.372,0.275,2.072,0.28c4.418,0.001,8.001-3.58,8.002-7.998c0-0.711-0.095-1.419-0.282-2.106
	l-24-88C126.771,2.414,123.609-0.001,120,0H56c-4.418,0-8,3.582-8,8v64c-0.001,3.609,2.414,6.771,5.896,7.72L141.928,103.72z M64,16
	h49.92l18.712,68.6L64,65.888L64,16z"/>
<g>
</g>
<g>
</g>
<g>
</g>
<g>
</g>
<g>
</g>
<g>
</g>
<g>
</g>
<g>
</g>
<g>
</g>
<g>
</g>
<g>
</g>
<g>
</g>
<g>
</g>
<g>
</g>
<g>
</g>
</svg>
