<svg id="Layer_35" enable-background="new 0 0 64 64" height="512" viewBox="0 0 64 64" width="512" xmlns="http://www.w3.org/2000/svg"><path d="m22 23 .02.01c-.61 1.27-1.08 2.6-1.42 3.99h-13.6c-.55 0-1 .45-1 1v8c0 .55.45 1 1 1h13.6c.34 1.39.82 2.73 1.42 4h-7.02-4-6-1c-1.1 0-2-.9-2-2v-14c0-1.1.9-2 2-2h1 6 4 6z" fill="#ccd1d9"/><path d="m7 27h13.6c-.39 1.6-.6 3.28-.6 5s.21 3.4.6 5h-13.6c-.55 0-1-.45-1-1v-8c0-.55.45-1 1-1z" fill="#e6e9ed"/><path d="m21 19v4h-6v-4c0-1.1.9-2 2-2h2c1.1 0 2 .9 2 2z" fill="#838f9b"/><path d="m11 15v8h-6v-8c0-1.1.9-2 2-2h2c1.1 0 2 .9 2 2z" fill="#838f9b"/><path d="m11 41v10c0 1.1-.9 2-2 2h-2c-1.1 0-2-.9-2-2v-10z" fill="#838f9b"/><path d="m27 12c1.37 0 2.52.93 2.87 2.19-1.56.97-2.97 2.14-4.22 3.48-.98-.49-1.65-1.5-1.65-2.67 0-1.66 1.34-3 3-3z" fill="#fcd770"/><path d="m62 11v20h-.03c-.52-11.14-9.71-20-20.97-20-3.22 0-6.27.72-9 2.02v-2.02c0-3.31 2.69-6 6-6h18c3.31 0 6 2.69 6 6z" fill="#dfb28b"/><path d="m35 52.13v4.87h-14c-3.31 0-6-2.69-6-6v-10h7.02c2.53 5.33 7.24 9.42 12.98 11.13z" fill="#dfb28b"/><path d="m41 53v4c0 1.1-.9 2-2 2h-2c-1.1 0-2-.9-2-2v-4.87c1.9.57 3.92.87 6 .87z" fill="#cf9e76"/><g fill="#b4dd7f"><circle cx="21" cy="51" r="2"/><circle cx="57" cy="11" r="2"/><path d="m30.39 42.59c.23.24.48.48.74.69 2.63 2.32 6.09 3.72 9.87 3.72.34 0 .67-.01 1-.04 3.74-.24 7.1-1.86 9.59-4.35.24-.23.48-.48.69-.74 2.32-2.63 3.72-6.09 3.72-9.87 0-.34-.01-.67-.04-1-.24-3.74-1.86-7.1-4.35-9.59-.23-.24-.48-.48-.74-.69-2.63-2.32-6.09-3.72-9.87-3.72-.34 0-.67.01-1 .04-3.74.24-7.1 1.86-9.59 4.35-.24.23-.48.48-.69.74-2.32 2.63-3.72 6.09-3.72 9.87 0 .34.01.67.04 1 .24 3.74 1.86 7.1 4.35 9.59zm1.61-29.57c2.73-1.3 5.78-2.02 9-2.02 11.26 0 20.45 8.86 20.97 20 .02.33.03.66.03 1 0 11.6-9.4 21-21 21-2.08 0-4.1-.3-6-.87-5.74-1.71-10.45-5.8-12.98-11.13-.6-1.27-1.08-2.61-1.42-4-.39-1.6-.6-3.28-.6-5s.21-3.4.6-5c.34-1.39.81-2.72 1.42-3.99.93-1.97 2.16-3.77 3.63-5.34 1.25-1.34 2.66-2.51 4.22-3.48.68-.43 1.4-.82 2.13-1.17z"/><path d="m56 32-4 4-4.16-2.5c.1-.48.16-.98.16-1.5 0-.34-.02-.68-.08-1h8.04c.03.33.04.66.04 1z"/><path d="m46.6 36.19 5.68 5.68c-.21.26-.45.51-.69.74h-5.64l-1.18-4.71v-.01c.71-.44 1.33-1.02 1.83-1.7z"/><path d="m51.61 21.41v5.64l-4.71 1.18h-.01c-.44-.71-1.02-1.33-1.7-1.83l5.68-5.68c.26.21.51.45.74.69z"/></g><path d="m47.84 33.5c-.22 1-.64 1.91-1.24 2.69-.5.68-1.12 1.26-1.83 1.7v.01c-.82.53-1.76.89-2.77 1.02-.32.06-.66.08-1 .08-.52 0-1.02-.06-1.5-.16-1-.22-1.91-.64-2.69-1.24-.68-.5-1.26-1.12-1.7-1.83h-.01c-.53-.82-.89-1.76-1.02-2.77-.06-.32-.08-.66-.08-1 0-.52.06-1.02.16-1.5.22-1 .64-1.91 1.24-2.69.5-.68 1.12-1.26 1.83-1.7v-.01c.82-.53 1.76-.89 2.77-1.02.32-.06.66-.08 1-.08.52 0 1.02.06 1.5.16 1 .22 1.91.64 2.69 1.24.68.5 1.26 1.12 1.7 1.83h.01c.53.82.89 1.76 1.02 2.77.06.32.08.66.08 1 0 .52-.06 1.02-.16 1.5zm-3.84-1.5c0-1.66-1.34-3-3-3s-3 1.34-3 3 1.34 3 3 3 3-1.34 3-3z" fill="#aab2bd"/><path d="m45 21-2.5 4.16c-.48-.1-.98-.16-1.5-.16-.34 0-.68.02-1 .08v-8.04c.33-.03.66-.04 1-.04z" fill="#b4dd7f"/><path d="m42 38.92v8.04c-.33.03-.66.04-1 .04l-4-4 2.5-4.16c.48.1.98.16 1.5.16.34 0 .68-.02 1-.08z" fill="#b4dd7f"/><path d="m37.23 26.1v.01c-.71.44-1.33 1.02-1.83 1.7l-5.68-5.68c.21-.26.45-.51.69-.74h5.64z" fill="#b4dd7f"/><path d="m36.81 37.6-5.68 5.68c-.26-.21-.51-.45-.74-.69v-5.64l4.71-1.18h.01c.44.71 1.02 1.33 1.7 1.83z" fill="#b4dd7f"/><path d="m30 28 4.16 2.5c-.1.48-.16.98-.16 1.5 0 .34.02.68.08 1h-8.04c-.03-.33-.04-.66-.04-1z" fill="#b4dd7f"/><path d="m41 16c-8.822 0-16 7.178-16 16s7.178 16 16 16 16-7.178 16-16-7.178-16-16-16zm0 29.586-2.741-2.741 1.748-2.913c.326.04.656.068.993.068zm0-7.586c-3.309 0-6-2.691-6-6s2.691-6 6-6 6 2.691 6 6-2.691 6-6 6zm-5.654-11.654-3.953-3.952h3.876l.825 3.301c-.261.203-.514.417-.748.651zm-2.346 5.654h-5.586l2.741-2.741 2.913 1.748c-.04.326-.068.656-.068.993zm2.346 5.654-3.952 3.952v-3.876l3.301-.825c.203.262.417.515.651.749zm5.654-19.24 2.741 2.741-1.748 2.913c-.326-.04-.656-.068-.993-.068zm5.654 19.24 3.952 3.952h-3.876l-.825-3.301c.262-.203.515-.417.749-.651zm2.346-5.654h5.586l-2.741 2.741-2.913-1.748c.04-.326.068-.656.068-.993zm-2.346-5.654 3.952-3.953v3.876l-3.301.825c-.203-.261-.417-.514-.651-.748zm-1.598-1.23c-.334-.198-.682-.375-1.045-.523l2.249-3.748-2.582-2.581c2.105.41 4.035 1.299 5.691 2.54zm-6.056-.853c-.38.098-.754.215-1.11.366l-1.059-4.236h-3.652c1.709-1.155 3.691-1.927 5.821-2.234zm-4.884 3.681c-.198.334-.375.682-.523 1.045l-3.748-2.249-2.581 2.582c.41-2.105 1.299-4.035 2.54-5.691zm-.853 6.056c.098.38.215.754.366 1.11l-4.236 1.059v3.652c-1.155-1.709-1.926-3.691-2.233-5.821zm3.681 4.884c.334.198.682.375 1.045.523l-2.249 3.748 2.582 2.581c-2.105-.41-4.036-1.299-5.691-2.54zm6.056.853c.38-.098.754-.215 1.11-.366l1.059 4.236h3.652c-1.709 1.155-3.691 1.926-5.821 2.233zm4.884-3.681c.198-.334.375-.682.523-1.045l3.748 2.249 2.581-2.582c-.41 2.105-1.299 4.036-2.54 5.691zm.853-6.056c-.098-.38-.215-.754-.366-1.11l4.236-1.059v-3.652c1.155 1.709 1.927 3.691 2.234 5.821z"/><path d="m41 28c-2.206 0-4 1.794-4 4s1.794 4 4 4 4-1.794 4-4-1.794-4-4-4zm0 6c-1.103 0-2-.897-2-2s.897-2 2-2 2 .897 2 2-.897 2-2 2z"/><path d="m21 48c-1.654 0-3 1.346-3 3s1.346 3 3 3 3-1.346 3-3-1.346-3-3-3zm0 4c-.551 0-1-.449-1-1s.449-1 1-1 1 .449 1 1-.449 1-1 1z"/><path d="m63 11c0-3.86-3.14-7-7-7h-18c-3.86 0-7 3.14-7 7v1.414c-.232.119-.462.24-.689.367-.727-1.087-1.959-1.781-3.311-1.781-2.206 0-4 1.794-4 4 0 1.086.442 2.091 1.192 2.828-.816.967-1.549 2.005-2.192 3.103v-1.931c0-1.654-1.346-3-3-3h-2c-1.654 0-3 1.346-3 3v3h-2v-7c0-1.654-1.346-3-3-3h-2c-1.654 0-3 1.346-3 3v7c-1.654 0-3 1.346-3 3v14c0 1.654 1.346 3 3 3v9c0 1.654 1.346 3 3 3h2c1.654 0 3-1.346 3-3v-9h2v9c0 3.86 3.14 7 7 7h13.184c.414 1.161 1.514 2 2.816 2h2c1.654 0 3-1.346 3-3v-3.025c11.668-.525 21-10.179 21-21.975 0-.335-.01-.668-.025-1h.025zm-36 2c.649 0 1.24.324 1.607.834-1.092.747-2.113 1.59-3.051 2.516-.345-.362-.556-.834-.556-1.35 0-1.103.897-2 2-2zm-7.905 17h-2.095v2h2c0 1.366.132 2.702.371 4h-12.371v-8h12.371c-.121.657-.215 1.324-.276 2zm-3.095-11c0-.551.449-1 1-1h2c.551 0 1 .449 1 1v3h-4zm-10-4c0-.551.449-1 1-1h2c.551 0 1 .449 1 1v7h-4zm-3 24v-14c0-.551.449-1 1-1h16.512c-.256.652-.481 1.319-.674 2h-12.838c-1.103 0-2 .897-2 2v8c0 1.103.897 2 2 2h12.839c.193.681.418 1.348.674 2h-16.513c-.551 0-1-.449-1-1zm7 12c0 .551-.449 1-1 1h-2c-.551 0-1-.449-1-1v-9h4zm6 0v-9h5.414c2.602 5.075 7.115 9.01 12.586 10.852v3.148h-13c-2.757 0-5-2.243-5-5zm23 7h-2c-.551 0-1-.449-1-1v-3.58c1.294.302 2.63.493 4 .555v3.025c0 .551-.449 1-1 1zm2-6c-11.028 0-20-8.972-20-20s8.972-20 20-20 20 8.972 20 20-8.972 20-20 20zm0-42c-2.822 0-5.519.54-8 1.512v-.512c0-2.757 2.243-5 5-5h18c2.757 0 5 2.243 5 5v11.852c-3.479-7.576-11.133-12.852-20-12.852z"/><path d="m57 8c-1.654 0-3 1.346-3 3s1.346 3 3 3 3-1.346 3-3-1.346-3-3-3zm0 4c-.551 0-1-.449-1-1s.449-1 1-1 1 .449 1 1-.449 1-1 1z"/><path d="m9 30h2v2h-2z"/><path d="m13 30h2v2h-2z"/></svg>