<svg id="icons" enable-background="new 0 0 64 64" height="512" viewBox="0 0 64 64" width="512" xmlns="http://www.w3.org/2000/svg"><path d="m38.99 1-3.01 7h-7.98l-3.02-7z" fill="#656d78"/><path d="m52 57h.01c-.01 3.31-2.68 5.98-5.98 5.99-.01 0-.01 0-.02 0l-28 .01h-.02c-3.311 0-6-2.69-6-6l2-28.01c0-.01 0-.01 0-.021.01-9.779 7.821-17.729 17.551-17.969h.93c9.718.24 17.519 8.2 17.529 17.97v.021z" fill="#656d78"/><path d="m52 57-2-28.01c0-.01 0-.01 0-.021-.01-9.769-7.811-17.729-17.529-17.969h-.93c-.352.009-.693.049-1.039.077 9.23.76 16.484 8.475 16.496 17.893v.021l2 28.01h.01c-.01 3.31-2.68 5.98-5.98 5.99v.001l2.982-.001h.02c3.3-.011 5.97-2.681 5.98-5.991z" fill="#545c66"/><path d="m36.49 8c.83 0 1.5.67 1.5 1.5s-.67 1.5-1.5 1.5h-9c-.82 0-1.5-.67-1.5-1.5s.68-1.5 1.5-1.5h.51 7.98z" fill="#e6e9ed"/><path d="m18.016 64c-.552 0-1-.447-1-1 0-.552.447-1 1-1l28.014-.002c.552 0 1 .447 1 1 0 .552-.447 1-1 1z"/><path d="m17.993 64c-3.859 0-7-3.141-7-7 0-.553.447-1 1-1s1 .447 1 1c0 2.757 2.243 5 5 5 .553 0 1 .447 1 1s-.447 1-1 1z"/><path d="m46.007 63.998c-.553 0-1-.447-1-1s.447-1 1-1c2.757 0 5-2.243 5-5 0-.553.447-1 1-1s1 .447 1 1c0 3.859-3.141 7-7 7z"/><path d="m11.994 58c-.023 0-.048-.001-.072-.003-.551-.039-.966-.518-.926-1.068l2.002-28.024c.038-.55.503-.962 1.068-.926.551.04.966.518.926 1.069l-2.002 28.023c-.037.527-.476.929-.996.929z"/><path d="m52.002 58.002c-.52 0-.959-.402-.996-.929l-2.002-28.024c-.04-.551.375-1.029.926-1.069.559-.041 1.029.375 1.068.926l2.002 28.025c.04.551-.375 1.029-.926 1.068-.024.002-.049.003-.072.003z"/><path d="m49.999 29.992c-.553 0-1-.448-1-1 0-9.375-7.627-17.002-17.002-17.002s-17.002 7.627-17.002 17.002c0 .552-.447 1-1 1s-1-.448-1-1c0-10.478 8.524-19.002 19.002-19.002s19.002 8.524 19.002 19.002c0 .552-.447 1-1 1z"/><path d="m36.492 12.001h-8.998c-.553 0-1-.448-1-1s.447-1 1-1h8.998c.553 0 1 .448 1 1s-.447 1-1 1z"/><path d="m36.492 9.001h-8.998c-.553 0-1-.448-1-1s.447-1 1-1h8.998c.553 0 1 .448 1 1s-.447 1-1 1z"/><path d="m27.494 12.001c-1.379 0-2.5-1.122-2.5-2.5s1.121-2.5 2.5-2.5c.553 0 1 .448 1 1s-.447 1-1 1c-.275 0-.5.224-.5.5s.225.5.5.5c.553 0 1 .448 1 1s-.447 1-1 1z"/><path d="m36.492 12.001c-.553 0-1-.448-1-1s.447-1 1-1c.275 0 .5-.224.5-.5s-.225-.5-.5-.5c-.553 0-1-.448-1-1s.447-1 1-1c1.379 0 2.5 1.122 2.5 2.5s-1.121 2.5-2.5 2.5z"/><path d="m35.977 9.002c-.133 0-.267-.026-.396-.082-.508-.219-.741-.807-.522-1.314l3.016-7.001c.217-.509.809-.741 1.313-.523.508.219.741.807.522 1.314l-3.016 7.001c-.162.378-.531.605-.917.605z"/><path d="m28.001 9.002c-.387 0-.756-.227-.918-.605l-3.016-7.002c-.219-.507.016-1.096.522-1.314.504-.218 1.096.015 1.313.523l3.016 7.002c.219.507-.016 1.096-.522 1.314-.128.056-.262.082-.395.082z"/><path d="m38.992 2h-14.007c-.553 0-1-.448-1-1s.447-1 1-1h14.007c.553 0 1 .448 1 1s-.447 1-1 1z"/><path d="m24.001 40.002c-.552 0-1-.447-1-1-.001-2.403.935-4.665 2.634-6.367 3.511-3.505 9.219-3.506 12.728-.001.391.39.391 1.024 0 1.415s-1.023.391-1.414 0c-2.729-2.725-7.17-2.726-9.898 0-1.322 1.323-2.05 3.083-2.049 4.953-.001.552-.448 1-1.001 1z"/><path d="m31.999 47.996c-2.304 0-4.608-.877-6.362-2.631-.391-.391-.391-1.023 0-1.414s1.023-.391 1.414 0c2.729 2.726 7.169 2.728 9.897 0 1.32-1.32 2.048-3.08 2.048-4.953 0-.553.447-1 1-1s1 .447 1 1c0 2.407-.936 4.669-2.634 6.367-1.754 1.754-4.058 2.631-6.363 2.631z"/><path d="m34.815 34.344c-.552 0-1-.447-1-.999 0-.553.447-1 .999-1.001l2.84-.002h.001c.552 0 1 .447 1 .999 0 .553-.447 1.001-.999 1.001z"/><path d="m37.656 34.342c-.367 0-.722-.203-.896-.555l-1.414-2.84c-.246-.495-.045-1.095.45-1.341.493-.246 1.096-.044 1.341.449l1.414 2.84c.246.495.045 1.095-.45 1.341-.143.073-.295.106-.445.106z"/><path d="m29.178 45.662h-2.84c-.553 0-1-.447-1-1s.447-1 1-1h2.84c.553 0 1 .447 1 1s-.448 1-1 1z"/><path d="m27.754 48.504c-.367 0-.722-.203-.896-.555l-1.415-2.842c-.246-.494-.045-1.095.45-1.341.493-.246 1.096-.044 1.341.45l1.415 2.842c.246.494.045 1.095-.45 1.341-.143.072-.296.105-.445.105z"/></svg>