<svg height="512" viewBox="0 0 60 60" width="512" xmlns="http://www.w3.org/2000/svg"><g id="Page-1" fill="none" fill-rule="evenodd"><g id="028---Throw-Paper" fill-rule="nonzero" transform="translate(0 -1)"><path id="Shape" d="m55 35.116-8.314-3.452c-.6174084-.2563962-1.3220964-.1873533-1.878.184l-4.1 2.739-3.7-2.872c-.7532088-.58441-1.8142048-.5559494-2.535.068l-4.047 3.5c-.5056428.4378267-.7589528 1.0994347-.675 1.763l.706 5.593-4.211 3.776c-.6314142.5662585-.8370096 1.469195-.513 2.253l3.012 7.291c.2172792.5258498.6482434.9342657 1.185 1.123l7.647 2.689c.593647.2085461 1.2508248.1255653 1.774-.224l4.158-2.778 6.053 3.018c.7066472.3523827 1.5544779.2560027 2.164-.246l5.359-4.413c.7928639-.6532389.9618826-1.8009231.391-2.655l-2.328-3.484 3.527-5.422c.3876113-.5954251.4302448-1.3517883.112-1.987l-2.766-5.516c-.2157084-.42816-.5780428-.764588-1.021-.948z" fill="#f5f5f5"/><path id="Shape" d="m58.788 41.583-2.766-5.516c-.2153823-.4294642-.5781653-.7670441-1.022-.951l-8.314-3.452c-.6174084-.2563962-1.3220964-.1873533-1.878.184l-.26.173 7.452 3.095c.4434607.1841562.8058639.521713 1.021.951l2.766 5.516c.3185429.6350365.2762904 1.3913936-.111 1.987l-3.528 5.422 2.328 3.484c.5708826.8540769.4018639 2.0017611-.391 2.655l-5.23 4.306.707.353c.7066472.3523827 1.5544779.2560027 2.164-.246l5.359-4.413c.7928639-.6532389.9618826-1.8009231.391-2.655l-2.328-3.484 3.528-5.422c.3876113-.5954251.4302448-1.3517883.112-1.987z" fill="#cfd8dc"/><path id="Shape" d="m39.62 51.952c-.4041391-.0000856-.7684991-.2434208-.9234088-.616692s-.0699134-.8030919.2154088-1.089308l2.443-2.446c.3373988-.3374828.3893217-.8663427.124-1.263l-2.422-3.627c-.2147151-.296696-.250063-.6870316-.0921398-1.0174727.1579232-.3304412.4838499-.5481178.8495805-.5674094.3657307-.0192915.712749.1628887.9045593.4748821l2.423 3.625c.7909533 1.1900093.6359135 2.7721683-.371 3.786l-2.443 2.449c-.1879015.1874279-.4426023.292474-.708.292z" fill="#9e9e9e"/><path id="Shape" d="m49.324 50.277c-.4504171-.0002354-.8450899-.3015624-.964-.736l-.455-1.659c-.3413906-1.2460849.1533539-2.5707756 1.228-3.288l1.295-.865c.2967641-.2112181.6849045-.2443645 1.0131856-.0865242.328281.1578403.5447708.481698.5651158.8453848.0203451.3636868-.158673.7096697-.4673014.9031394l-1.3.866c-.3597756.2397096-.5247746.6834722-.409 1.1l.455 1.659c.0701803.2558022.0358538.5290074-.0954261.7594974s-.3487562.3993787-.6045739.4695026c-.0852549.0218832-.1729837.0326392-.261.032z" fill="#9e9e9e"/><path id="Shape" d="m15.53 7.28 17.31-4.12c1.9718358-.46828263 4.0469144.08807904 5.52 1.48l14.49 13.74c.5435784.5102528.8383593 1.2316932.8076414 1.9766038-.030718.7449105-.3838973 1.439631-.9676414 1.9033962-1.6186927 1.300489-3.8744947 1.4599097-5.66.4l-12.66-7.44c-.8574567-.5056171-1.9095227-.5542892-2.81-.13l-4.88 2.32c-.6103385.2288463-1.0708643.740765-1.2341038 1.3718249s-.0087099 1.302078.4141038 1.7981751l2.87 3.02c1.1325385 1.3214601 1.0540345 3.292784-.18 4.52-1.0457031 1.0446474-2.6964867 1.1719572-3.89.3l-13-9.53z" fill="#ffe0b2"/><path id="Shape" d="m25.86 20.58c-.4228137-.4960971-.5773433-1.1671152-.4141038-1.7981751s.6237653-1.1429786 1.2341038-1.3718249l4.646-2.21c-.8490442-.4847598-1.8808417-.526166-2.766-.111l-4.88 2.32c-.6103385.2288463-1.0708643.740765-1.2341038 1.3718249s-.0087099 1.302078.4141038 1.7981751l2.87 3.02c1.1325385 1.3214601 1.0540345 3.292784-.18 4.52-.1844006.1810877-.3918516.3370963-.617.464 1.171074.6849897 2.6567455.4944031 3.617-.464 1.2340345-1.227216 1.3125385-3.1985399.18-4.52z" fill="#dfc49c"/><path id="Shape" d="m52.85 18.38-14.49-13.74c-1.4730856-1.39192096-3.5481642-1.94828263-5.52-1.48l-.12.029c.9890757.25128685 1.8977147.75069409 2.64 1.451l14.49 13.74c.5435784.5102528.8383593 1.2316932.8076414 1.9766038-.030718.7449105-.3838973 1.439631-.9676414 1.9033962-.481519.3815551-1.0298598.6701376-1.617.851 1.5843753.5078293 3.3177948.1883274 4.617-.851.5837441-.4637652.9369234-1.1584857.9676414-1.9033962.0307179-.7449106-.264063-1.466351-.8076414-1.9766038z" fill="#dfc49c"/><path id="Shape" d="m15.8 6.483-4.734 14.2c-.340269 1.0275048-1.43621868 1.5978596-2.473 1.287l-6.167-1.85c-.51871117-.1547301-.95255293-.5131053-1.20243614-.993273-.24988321-.4801678-.29446534-1.0411169-.12356386-1.554727l4.735-14.2c.34027514-1.02851511 1.4375941-1.59912097 2.475-1.287l6.167 1.85c.5181599.15536941.9512838.51400893 1.2005629.99410196s.2934504 1.04068869.1224371 1.55389804z" fill="#9d27b0"/><circle id="Oval" cx="10" cy="8" fill="#f5f5f5" r="1"/><g fill="#000"><path id="Shape" d="m59.682 41.135-2.766-5.516c-.3226764-.6436541-.86608-1.1497897-1.531-1.426l-8.315-3.453c-.9258939-.386058-1.9836432-.2824233-2.817.276l-3.5 2.339-3.132-2.43c-1.1301504-.871892-2.7172711-.8301257-3.8.1l-4.048 3.5c-.7577515.6569472-1.1371195 1.6490825-1.011 2.644l.64 5.074-3.82 3.425c-.9475177.8493487-1.2561332 2.2040503-.77 3.38l3.011 7.29c.3245265.790762.9709563 1.4055434 1.777 1.69l7.647 2.689c.8909666.3100995 1.8756463.1861822 2.662-.335l3.675-2.456 5.534 2.759c1.0597091.5281365 2.3309258.3835821 3.245-.369l5.36-4.413c1.1936725-.9775493 1.4479121-2.7026536.587-3.983l-1.961-2.935 3.168-4.87c.5776745-.8944037.6404013-2.0272884.165-2.98zm-1.843 1.89-3.526 5.421-3.034 4.422c-.3125932.4553588-.1968588 1.0779068.2585 1.3905s1.0779068.1968588 1.3905-.2585l2.211-3.223 1.507 2.256c.2840966.4280387.1976353 1.0017092-.2 1.327l-5.359 4.413c-.304552.2505797-.7279382.298754-1.081.123l-4.506-2.25 1.062-.709c.4595009-.3070703.5830703-.9284991.276-1.388s-.9284991-.5830703-1.388-.276l-2.496 1.667-4.154 2.779c-.2623618.172698-.5899448.2140614-.887.112l-7.647-2.689c-.2686672-.0943589-.4843653-.2987811-.593-.562l-3.012-7.29c-.1621237-.3921447-.0591036-.8439098.257-1.127l2.882-2.588 1.069 5.737c.088145.4735325.5013336.8169456.983.817.0617348.0002076.1233482-.0054849.184-.017.5428597-.1011237.9010032-.6231178.8-1.166l-1.391-7.463-.7-5.56c-.0419237-.3315278.0845217-.6620868.337-.881l4.047-3.5c.3604838-.3122465.8913012-.3264797 1.268-.034l3.689 2.863 5.531 4.69c.422469.340325 1.0392394.2817361 1.3900735-.1320472.350834-.4137834.3077628-1.0318313-.0970735-1.3929528l-4.541-3.851 3-2c.2781986-.1860272.6310122-.2205578.94-.092l8.313 3.453c.2218334.091854.4032133.2604558.511.475l2.767 5.51c.1561873.3189449.1330145.6965463-.061.994z"/><path id="Shape" d="m16.564 4.468c-.3711841-.72197771-1.021547-1.260695-1.8-1.491l-6.164-1.85c-1.55468903-.47737421-3.20517086.37900787-3.71 1.925l-4.735 14.203c-.25685451.7698751-.19082599 1.6109698.18301682 2.3313333.37384281.7203634 1.02359867 1.2585246 1.80098318 1.4916667l6.167 1.85c.28319833.0851355.57728192.1285912.873.129 1.2900838-.0007062 2.4335249-.8306492 2.834-2.057l.164-.494 11.892 8.718c1.593681 1.1560708 3.7903695.9867039 5.188-.4.8160159-.8106644 1.2743181-1.9137579 1.273-3.064-.0042816-1.0480012-.3859064-2.0593958-1.075-2.849l-2.836-2.982c-.2121814-.244855-.2893263-.5789-.206-.892.0946612-.3448801.3585057-.6177707.7-.724l4.869-2.313c.6025748-.2850067 1.3073057-.2524115 1.881.087l12.658 7.438c2.1448993 1.2615897 4.8453955 1.0711395 6.792-.479.8101948-.6441079 1.3005619-1.6084534 1.3437466-2.6425838s-.3650741-2.0360021-1.1187466-2.7454162l-14.491-13.744c-1.7151597-1.62932249-4.1388586-2.27900479-6.439-1.726l-15.72 3.741c.0189218-.50671267-.0926437-1.00979048-.324-1.461zm-7.684 16.544-6.167-1.85c-.2589881-.0777911-.47543046-.2571549-.59996934-.497189s-.14655604-.5202731-.06103066-.776811l4.735-14.2c.13410082-.40838196.51417212-.68538308.944-.688.09857234.00014101.19659952.01462613.291.043l6.167 1.85c.2591718.07757821.4758534.25685395.6005936.4969129s.1468943.52041565.0614064.7770871l-4.736 14.2c-.16688561.5158176-.71632163.8027701-1.235.645zm24.192-16.879c1.6431888-.39384197 3.3740824.07011277 4.6 1.233l14.491 13.741c.3166542.2919305.4977601.7023166.5 1.133.0010907.4835541-.2201449.9407745-.6 1.24-1.2970208 1.0345898-3.0980801 1.1611056-4.527.318l-12.656-7.438c-1.144208-.6751589-2.5484897-.7399431-3.75-.173l-4.8 2.288c-.9232047.3476139-1.6165151 1.1268767-1.8543617 2.084254-.2378465.9573773.0101717 1.9704997.6633617 2.709746l2.831 2.981c.7939787.9263802.7372323 2.3088097-.13 3.167-.6965101.6940105-1.794165.7788042-2.589.2l-12.409-9.1 3.465-10.394z"/></g></g></g></svg>