<?xml version="1.0"?>
<svg xmlns="http://www.w3.org/2000/svg" id="filled_outline" data-name="filled outline" viewBox="0 0 512 512" width="512" height="512"><polygon points="168 464 264 464 280 360 152 360 168 464" style="fill:#c78640"/><path d="M422.31982,288.36a73.4261,73.4261,0,0,0-4.93994-14.93L368,164.8,344,112H168L94.62012,273.43A73.95187,73.95187,0,0,0,88,304a55.993,55.993,0,0,0,56,56H368a55.99726,55.99726,0,0,0,56-56A73.28677,73.28677,0,0,0,422.31982,288.36ZM208,176a16,16,0,1,1,0-32h96a16,16,0,0,1,0,32Z" style="fill:#ffa100"/><rect x="224" y="304" width="144" height="56" style="fill:#ffd873"/><polygon points="352 304 336 264 256 264 240 304 352 304" style="fill:#ffcc4d"/><path d="M496,24V144H216a23.9986,23.9986,0,0,1-22.62012-16A23.597,23.597,0,0,1,192,120V96a72.00575,72.00575,0,0,1,72-72Z" style="fill:#ffceb6"/><path d="M312,304V288l56-123.2L344,112H168L94.62012,273.43A73.95187,73.95187,0,0,0,88,304a55.993,55.993,0,0,0,56,56H368A55.99726,55.99726,0,0,1,312,304ZM208,176a16,16,0,1,1,0-32h96a16,16,0,0,1,0,32Z" style="fill:#ffb401"/><path d="M368,24V72H344a24.00619,24.00619,0,0,0-24,24v24a24.00619,24.00619,0,0,1-24,24H216a23.9986,23.9986,0,0,1-22.62012-16A23.597,23.597,0,0,1,192,120V96a72.00575,72.00575,0,0,1,72-72Z" style="fill:#ffceb6"/><path d="M16,344H172.7159A19.28411,19.28411,0,0,1,192,363.2841v0A19.28409,19.28409,0,0,1,180.31228,381.009l-34.21216,14.66236A16.66464,16.66464,0,0,0,136,410.98861v0a16.93575,16.93575,0,0,0,12.572,16.36391l93.99412,25.0651A18.09668,18.09668,0,0,1,256,469.90329v0A18.09668,18.09668,0,0,1,237.90332,488H16Z" style="fill:#ffceb6"/><rect x="392" y="24" width="104" height="120" style="fill:#548aff"/><polygon points="256 464 336 464 352 360 240 360 256 464" style="fill:#d69651"/><rect x="16" y="344" width="56" height="144" style="fill:#548aff"/><path d="M496,32V16H264a80.09041,80.09041,0,0,0-80,80v8H168a8.00144,8.00144,0,0,0-7.2832,4.68945L87.33789,270.12354A81.32153,81.32153,0,0,0,80,304a63.66174,63.66174,0,0,0,8.561,32H16v16H64V480H16v16H237.90332a26.12629,26.12629,0,0,0,26.00488-24H336a8.00063,8.00063,0,0,0,7.90723-6.78369L358.86377,368H368a64.07239,64.07239,0,0,0,64-64,81.32153,81.32153,0,0,0-7.33789-33.87646L370.96973,152H496V136H400V32ZM96,304a65.4203,65.4203,0,0,1,5.9043-27.25537L173.15137,120H184a31.87406,31.87406,0,0,0,8.50366,21.69434A23.98571,23.98571,0,0,0,208,184h96a23.98557,23.98557,0,0,0,15.49609-42.30566A31.8731,31.8731,0,0,0,328,120h10.84863l20.36328,44.7998-47.874,105.32374A81.32153,81.32153,0,0,0,304,304a63.85009,63.85009,0,0,0,21.73535,48h-128.188a27.31557,27.31557,0,0,0-24.83154-16H108.22705A47.6983,47.6983,0,0,1,96,304ZM304,152a8,8,0,0,1,0,16H208a8,8,0,0,1,0-16Zm26.584,120,9.59961,24H320.49951a65.40379,65.40379,0,0,1,5.40479-19.25537L328.061,272ZM360,351.32062A48.10686,48.10686,0,0,1,320.6792,312H360ZM149.252,403.02441l1.19385-.51165,2.73682,17.78949-2.54883-.67969A8.94621,8.94621,0,0,1,144,410.98877,8.65536,8.65536,0,0,1,149.252,403.02441Zm20.812,21.77948-4.4309-28.80017,17.83081-7.6419A27.23937,27.23937,0,0,0,199.5752,368h33.56127L244.95,444.788c-.10889-.03051-.21265-.07135-.322-.10052ZM237.90332,480H80V352h92.71582a11.28411,11.28411,0,0,1,4.44531,21.65576l-34.21191,14.66211A24.63769,24.63769,0,0,0,128,410.98877a24.96661,24.96661,0,0,0,18.51074,24.09375l93.99414,25.06494A10.09674,10.09674,0,0,1,237.90332,480Zm91.2334-24h-66.273L249.3252,368h93.3496ZM416,304a48.0686,48.0686,0,0,1-40,47.32062V304a8.00008,8.00008,0,0,0-8-8H357.416l-13.98829-34.97119A7.99975,7.99975,0,0,0,336,256h-.6665L368,184.13281l42.0957,92.61182A65.4203,65.4203,0,0,1,416,304ZM384,136H363.69727L351.2832,108.68945A8.00144,8.00144,0,0,0,344,104H328V96a16.01833,16.01833,0,0,1,16-16h8V64h-8a32.03635,32.03635,0,0,0-32,32v24a16.01833,16.01833,0,0,1-16,16V105.88867a68.1324,68.1324,0,0,1,7.15527-30.311l-14.31054-7.15528A84.20684,84.20684,0,0,0,280,105.88867V136H264V105.88867a68.1324,68.1324,0,0,1,7.15527-30.311l-14.31054-7.15528A84.20684,84.20684,0,0,0,248,105.88867V136H232V105.88867a68.1324,68.1324,0,0,1,7.15527-30.311l-14.31054-7.15528A84.20684,84.20684,0,0,0,216,105.88867V136a16.01833,16.01833,0,0,1-16-16V96a64.07239,64.07239,0,0,1,64-64H384Z"/></svg>
