<svg id="Capa_1" enable-background="new 0 0 512 512" height="512" viewBox="0 0 512 512" width="512" xmlns="http://www.w3.org/2000/svg"><g><path d="m302.167 110.146v209.122h202.333v-80.139c0-4.997-1.953-9.796-5.444-13.373l-107.173-109.835c-3.604-3.693-8.545-5.776-13.705-5.776h-76.011z" fill="#9ec8fc"/><path d="m499.056 225.756-107.173-109.835c-3.604-3.693-8.545-5.776-13.705-5.776h-30c5.16 0 10.102 2.082 13.705 5.776l107.173 109.834c3.49 3.577 5.444 8.376 5.444 13.373v80.139h30v-80.139c0-4.996-1.954-9.795-5.444-13.372z" fill="#80b6fc"/><path d="m504.5 280.556v-39.496h-29.191c-5.259 0-9.523 4.264-9.523 9.523v20.451c0 5.259 4.264 9.523 9.523 9.523h29.191z" fill="#faeaa3"/><path d="m488.792 215.236-96.908-99.315c-3.604-3.693-8.545-5.776-13.705-5.776h-27.894v91.596c0 7.452 6.042 13.494 13.494 13.494h125.013z" fill="#fff"/><path d="m493.259 350.383h-474.519c-6.208 0-11.241-5.033-11.241-11.241v-20.884h497v20.884c.001 6.209-5.032 11.241-11.24 11.241z" fill="#e3e0e4"/><ellipse cx="405.164" cy="350.383" fill="#8c818f" rx="51.78" ry="51.471"/><ellipse cx="405.164" cy="350.383" fill="#c8c3ca" rx="18.167" ry="18.058"/><path d="m7.5 119.81v198.448h294.667v-208.112h-285.003c-5.337 0-9.664 4.327-9.664 9.664z" fill="#62a4fb"/><ellipse cx="121.451" cy="350.383" fill="#8c818f" rx="51.78" ry="51.471"/><ellipse cx="121.451" cy="350.383" fill="#c8c3ca" rx="18.167" ry="18.058"/><path d="m212.041 255.092h-112.1c-3.979 0-7.204-3.225-7.204-7.204v-78.373c0-3.979 3.225-7.204 7.204-7.204h112.1c3.979 0 7.204 3.225 7.204 7.204v78.373c0 3.978-3.226 7.204-7.204 7.204z" fill="#fff"/><path d="m391.884 115.921c-3.604-3.693-8.545-5.776-13.705-5.776h-27.894v.124c4.383.485 8.49 2.465 11.599 5.651l96.908 99.315h30z" fill="#e7e7e7"/><path d="m405.164 298.912c-5.217 0-10.251.775-15 2.202 21.281 6.394 36.78 26.029 36.78 49.269 0 23.241-15.499 42.875-36.78 49.269 4.749 1.427 9.783 2.202 15 2.202 28.597 0 51.78-23.044 51.78-51.471s-23.183-51.471-51.78-51.471z" fill="#766d78"/><path d="m272.167 110.146h30v208.113h-30z" fill="#5392f9"/><path d="m121.451 298.912c-5.217 0-10.251.775-15 2.202 21.281 6.394 36.78 26.029 36.78 49.269 0 23.241-15.499 42.875-36.78 49.269 4.749 1.427 9.783 2.202 15 2.202 28.597 0 51.78-23.044 51.78-51.471s-23.183-51.471-51.78-51.471z" fill="#766d78"/><path d="m212.041 162.312h-30c3.978 0 7.204 3.225 7.204 7.204v78.372c0 3.979-3.225 7.204-7.204 7.204h30c3.978 0 7.204-3.225 7.204-7.204v-78.372c0-3.979-3.226-7.204-7.204-7.204z" fill="#e7e7e7"/><path d="m512 239.129c0-6.995-2.69-13.605-7.576-18.611l-107.172-109.834c-4.984-5.108-11.936-8.038-19.073-8.038h-285.442c-4.142 0-7.5 3.358-7.5 7.5s3.358 7.5 7.5 7.5h201.93v193.113h-129.35c-10.852-11.878-26.499-19.346-43.866-19.346s-33.015 7.469-43.867 19.346h-62.584v-190.949c0-1.193.971-2.164 2.164-2.164h45.573c4.142 0 7.5-3.358 7.5-7.5s-3.358-7.5-7.5-7.5h-45.573c-9.464 0-17.164 7.7-17.164 17.164v219.332c0 10.334 8.407 18.741 18.74 18.741h43.926c3.718 28.986 28.653 51.471 58.784 51.471 30.132 0 55.066-22.485 58.784-51.471h93.196c4.142 0 7.5-3.358 7.5-7.5s-3.358-7.5-7.5-7.5h-93.196c-.775-6.04-2.467-11.795-4.94-17.125h176.026c-2.473 5.33-4.166 11.085-4.94 17.125h-42.95c-4.142 0-7.5 3.358-7.5 7.5s3.358 7.5 7.5 7.5h42.95c3.718 28.986 28.653 51.471 58.784 51.471 30.132 0 55.066-22.485 58.784-51.471h29.311c10.333 0 18.741-8.407 18.741-18.741zm-497 100.013v-13.384h52.607c-2.473 5.33-4.165 11.085-4.94 17.125h-43.927c-2.062 0-3.74-1.678-3.74-3.741zm106.451 55.212c-24.416 0-44.28-19.725-44.28-43.971s19.864-43.971 44.28-43.971 44.28 19.725 44.28 43.971-19.864 43.971-44.28 43.971zm256.727-276.708c1.17 0 2.328.18 3.434.523 1.843.571 3.541 1.595 4.903 2.991l84.479 86.577h-107.216c-3.305 0-5.994-2.689-5.994-5.994v-84.096h20.394zm-68.511 193.113v-193.113h33.117v84.096c0 11.576 9.418 20.994 20.994 20.994h121.852l8.058 8.258c.755.774 1.384 1.64 1.89 2.566h-20.27c-9.386 0-17.023 7.637-17.023 17.023v20.451c0 9.386 7.636 17.023 17.023 17.023h21.692v22.702h-47.681c-.093 0-.184.011-.276.014-10.852-11.886-26.505-19.36-43.879-19.36-17.368 0-33.015 7.469-43.867 19.346zm187.333-62.199v24.496h-21.691c-1.115 0-2.023-.907-2.023-2.023v-20.451c0-1.116.907-2.023 2.023-2.023h21.691zm-91.836 145.794c-24.416 0-44.28-19.725-44.28-43.971s19.864-43.971 44.28-43.971 44.28 19.725 44.28 43.971-19.864 43.971-44.28 43.971zm91.836-55.212c0 2.063-1.678 3.741-3.741 3.741h-29.311c-.775-6.04-2.467-11.795-4.94-17.125h37.992z"/><path d="m405.164 324.825c-14.153 0-25.667 11.465-25.667 25.558s11.514 25.558 25.667 25.558 25.667-11.465 25.667-25.558-11.514-25.558-25.667-25.558zm0 36.117c-5.882 0-10.667-4.737-10.667-10.558 0-5.822 4.785-10.558 10.667-10.558s10.667 4.737 10.667 10.558-4.785 10.558-10.667 10.558z"/><path d="m121.451 324.825c-14.153 0-25.667 11.465-25.667 25.558s11.514 25.558 25.667 25.558c14.152 0 25.667-11.465 25.667-25.558-.001-14.093-11.515-25.558-25.667-25.558zm0 36.117c-5.882 0-10.667-4.737-10.667-10.558 0-5.822 4.785-10.558 10.667-10.558 5.881 0 10.667 4.737 10.667 10.558-.001 5.821-4.786 10.558-10.667 10.558z"/><path d="m99.94 262.591h112.101c8.107 0 14.704-6.596 14.704-14.704v-78.373c0-8.108-6.596-14.704-14.704-14.704h-112.101c-8.107 0-14.704 6.596-14.704 14.704v78.373c.001 8.109 6.597 14.704 14.704 14.704zm.297-92.779h111.508v77.78h-111.508z"/><path d="m186.289 186.734h-60.596c-4.142 0-7.5 3.358-7.5 7.5s3.358 7.5 7.5 7.5h60.596c4.142 0 7.5-3.358 7.5-7.5s-3.358-7.5-7.5-7.5z"/><path d="m186.289 215.669h-60.596c-4.142 0-7.5 3.358-7.5 7.5s3.358 7.5 7.5 7.5h60.596c4.142 0 7.5-3.358 7.5-7.5s-3.358-7.5-7.5-7.5z"/></g></svg>